<svg width="52" height="52" viewBox="0 0 52 52" fill="none" xmlns="http://www.w3.org/2000/svg">
  <path
    d="M22.1333 39.2663L20.2666 37.3663L31.6999 25.9329L20.2666 14.4996L22.1333 12.5996L35.4666 25.9329L22.1333 39.2663Z"
    fill="#FCFCFC" />
  <path
    d="M26 1C31.6351 1 37.1049 2.90376 41.5222 6.4025C45.9395 9.90124 49.0453 14.7897 50.3357 20.275C51.6261 25.7604 51.0255 31.5208 48.6313 36.6219C46.2371 41.7231 42.1897 45.8657 37.1457 48.378C32.1016 50.8902 26.3567 51.6247 20.8429 50.4623C15.329 49.2999 10.3696 46.3087 6.76901 41.974C3.16843 37.6393 1.1379 32.2153 1.00677 26.5818C0.875642 20.9482 2.65161 15.4356 6.04661 10.9381"
    stroke="#FCFCFC" stroke-width="2" />
</svg>