<svg width="314" height="149" viewBox="0 0 314 149" fill="none" xmlns="http://www.w3.org/2000/svg">
<path d="M44.8686 95.4416C45.6609 97.8655 44.8686 99.0773 41.6995 100.592C37.4209 102.864 34.7273 102.41 32.1919 99.0773C29.6566 95.896 29.0226 92.5633 28.0718 89.5337C27.7549 88.4732 27.2798 86.8069 26.8045 86.9583C26.4876 86.9583 26.1705 87.4128 25.8535 88.1702C22.5259 94.2298 13.4936 100.138 7.47221 98.9259C2.40153 97.8655 -0.291801 92.2603 0.0251167 87.1098C0.65895 78.3236 2.40169 70.5978 7.63081 63.175C14.2861 53.7828 23.6351 53.6314 30.6073 62.872C30.7658 63.0235 31.0825 63.3265 31.241 63.3265C39.1639 61.6601 39.1645 68.174 39.0059 73.0216C38.8477 78.0206 39.64 82.1108 41.383 86.6554C42.9677 91.3516 44.0762 93.0177 44.8686 95.4416ZM13.1769 83.9286C17.7722 84.989 19.5152 78.0207 20.3075 74.688C20.7829 72.5672 20.3075 69.9919 18.7229 69.3859C18.2476 69.083 16.9799 69.083 16.3461 69.9919C13.8107 73.9305 9.53234 83.1712 13.1769 83.9286Z" fill="#061538"/>
<path d="M45.1992 78.7584C45.1992 67.5484 54.0727 55.7325 64.0556 53.4602C68.9679 52.3998 74.6722 56.4899 75.7814 64.3672C76.5737 69.9722 74.3553 73.1534 68.6508 72.396C65.6401 71.9415 65.3235 69.5177 65.0066 66.9425C65.0066 66.488 64.5312 65.8821 63.422 66.3365C58.6682 68.6088 55.499 77.5465 57.8759 82.2426C60.4113 87.3933 65.7988 88.4534 68.968 83.606C71.5033 79.3643 72.771 78.001 76.0986 79.3643C80.8523 81.3336 80.852 83.1515 79.5842 86.3328C77.8412 90.7259 70.8694 97.6942 62.4711 98.4516C53.4389 98.7547 45.1992 89.3625 45.1992 78.7584Z" fill="#061538"/>
<path d="M111.74 101.344L86.3861 100.284C85.7522 100.284 85.2768 99.8294 84.8014 99.375C84.4845 98.9206 84.1671 98.3146 84.3256 97.7085C84.3256 97.4058 87.8122 72.4105 88.7628 62.4122C89.0797 58.6252 89.2383 55.5956 88.7628 54.5351C88.4459 53.7777 87.1781 53.3233 84.4842 52.4143C84.3257 52.2629 84.0088 52.2629 83.6919 52.1112C82.5827 51.6569 81.1564 51.3538 79.5718 50.7478C73.2335 48.9299 64.3598 46.3547 56.5953 39.235C52.7923 35.9024 51.8417 31.3577 53.5848 26.9646C55.4863 22.42 60.2405 18.9358 64.3604 18.9358C64.8358 18.9358 65.4697 18.9358 65.945 19.0873C69.2726 19.8447 71.1737 21.0566 73.3921 22.5715C75.4521 23.9348 77.9879 25.6012 82.5832 27.5705C86.703 29.3883 90.1889 30.9032 91.7736 30.9032C91.9319 30.9032 91.9322 30.9032 91.9322 30.9032C92.0905 30.7517 92.2484 30.2972 92.2484 28.7824C92.2484 27.419 92.2491 25.4497 92.0908 23.1774C91.6153 14.0882 91.6153 6.96835 94.4675 3.78716C97.0028 0.908919 102.073 0 105.56 0C110.313 0 113.958 1.51486 115.701 4.09012C119.187 9.24067 119.662 17.4209 119.821 25.2982C119.821 27.5705 119.979 29.0854 120.137 30.1458C120.296 31.0547 120.455 31.5092 120.455 31.6606C121.088 31.6606 122.039 31.2062 122.356 31.2062C123.623 30.7517 125.208 29.3883 126.635 28.025C129.328 25.6012 132.497 22.7229 136.617 22.7229C136.775 22.7229 136.934 22.7229 137.093 22.7229C141.213 22.8744 145.333 25.4497 147.551 28.9339C149.136 31.5092 149.453 34.2359 148.343 36.3568C144.223 44.3855 137.093 49.9904 126.952 53.0203C121.406 54.6865 118.87 55.7469 117.76 56.8073C116.81 57.8678 116.652 59.0796 116.335 62.2608C116.335 63.0183 116.176 63.7757 116.017 64.6847C115.067 73.0165 113.64 99.072 113.64 99.375C113.799 99.9811 112.849 101.344 111.74 101.344ZM88.9214 95.7393L109.679 96.3454C109.996 90.1345 111.105 71.1987 112.056 63.9273C112.214 63.0183 112.215 62.2608 112.373 61.6548C112.69 58.3221 113.007 55.7469 115.067 53.7777C117.127 51.8082 120.455 50.4451 126.159 48.9299C131.547 47.4151 135.984 44.9916 139.47 41.8103C141.688 39.6894 143.59 37.2655 145.016 34.3872C145.491 33.4785 145.333 32.1151 144.382 30.7517C142.956 28.3279 139.944 26.6616 137.409 26.5101H137.252C134.716 26.5101 132.497 28.4794 130.121 30.6002C128.378 32.2666 126.476 33.9329 124.257 34.6903C123.148 35.145 121.88 35.4477 120.771 35.4477C119.345 35.4477 117.444 34.8419 116.652 32.2666C116.176 30.9032 116.017 28.7824 116.017 25.1467C115.859 17.7239 115.384 10.3011 112.532 6.05944C111.581 4.69607 109.045 3.93864 106.035 3.93864C102.707 3.93864 99.3795 4.99904 98.1117 6.36243C97.6366 6.81687 96.8442 8.33175 96.6859 12.7249C96.5273 15.9061 96.6859 19.6932 96.8445 23.0259C97.0028 25.2982 97.0022 27.2675 97.0022 28.7824C97.0022 30.7517 96.6859 31.9636 96.0522 32.8725C95.4185 33.7815 94.3086 34.8419 92.2484 34.8419C89.8717 34.8419 86.544 33.4785 81.315 31.2062C76.4028 29.0854 73.7095 27.2675 71.4911 25.9042C69.4311 24.5408 68.0045 23.6319 65.4692 23.0259C65.3107 23.0259 65.1524 23.0259 64.8355 23.0259C62.1417 23.0259 59.1313 25.9042 58.0221 28.6309C57.2298 30.6002 56.7539 33.6298 59.9231 36.5081C67.0538 43.022 75.2936 45.4459 81.315 47.1121C82.8996 47.5668 84.4847 48.0212 85.7523 48.4756C86.0692 48.6272 86.2275 48.6272 86.3861 48.7786C89.7138 49.9904 91.7739 50.7478 92.8828 53.0203C93.8338 54.9895 93.8334 57.7164 93.358 63.0183C92.4073 70.744 89.8724 89.2254 88.9214 95.7393Z" fill="#061538"/>
<path d="M1.4 143V128.6H12.85V143H10.76V130.57H3.49V143H1.4ZM20.3478 143.3C19.2678 143.3 18.3311 143.057 17.5378 142.57C16.7445 142.083 16.1311 141.413 15.6978 140.56C15.2711 139.7 15.0578 138.71 15.0578 137.59C15.0578 136.463 15.2778 135.473 15.7178 134.62C16.1578 133.76 16.7745 133.093 17.5678 132.62C18.3611 132.14 19.2878 131.9 20.3478 131.9C21.4278 131.9 22.3645 132.143 23.1578 132.63C23.9511 133.117 24.5645 133.787 24.9978 134.64C25.4311 135.493 25.6478 136.477 25.6478 137.59C25.6478 138.717 25.4278 139.71 24.9878 140.57C24.5545 141.423 23.9411 142.093 23.1478 142.58C22.3545 143.06 21.4211 143.3 20.3478 143.3ZM20.3478 141.33C21.3811 141.33 22.1511 140.983 22.6578 140.29C23.1711 139.59 23.4278 138.69 23.4278 137.59C23.4278 136.463 23.1678 135.563 22.6478 134.89C22.1345 134.21 21.3678 133.87 20.3478 133.87C19.6478 133.87 19.0711 134.03 18.6178 134.35C18.1645 134.663 17.8278 135.1 17.6078 135.66C17.3878 136.213 17.2778 136.857 17.2778 137.59C17.2778 138.723 17.5378 139.63 18.0578 140.31C18.5778 140.99 19.3411 141.33 20.3478 141.33ZM26.8453 143V141.23C27.2453 141.303 27.5486 141.293 27.7553 141.2C27.9686 141.1 28.1253 140.92 28.2253 140.66C28.332 140.4 28.422 140.063 28.4953 139.65C28.6086 139.043 28.7053 138.353 28.7853 137.58C28.872 136.8 28.9486 135.957 29.0153 135.05C29.082 134.143 29.142 133.193 29.1953 132.2H36.9553V143H34.8553V134.17H31.0753C31.0353 134.697 30.9886 135.257 30.9353 135.85C30.8886 136.437 30.8353 137.02 30.7753 137.6C30.7153 138.18 30.652 138.723 30.5853 139.23C30.5186 139.737 30.4486 140.17 30.3753 140.53C30.242 141.25 30.0453 141.823 29.7853 142.25C29.532 142.67 29.172 142.94 28.7053 143.06C28.2386 143.187 27.6186 143.167 26.8453 143ZM48.8594 132.2V143H46.8494V135.49L41.4494 143H39.7494V132.2H41.7594V139.56L47.1694 132.2H48.8594ZM54.4439 143V134.08H50.7539V132.2H60.2239V134.08H56.5339V143H54.4439ZM71.2227 132.2V143H69.2127V135.49L63.8127 143H62.1127V132.2H64.1227V139.56L69.5327 132.2H71.2227ZM74.0072 143L74.0172 132.2H76.1372V137.4L80.3772 132.2H83.0372L78.5572 137.6L83.4972 143H80.6572L76.1372 137.8V143H74.0072ZM87.5555 143.3C86.7555 143.3 86.0855 143.153 85.5455 142.86C85.0055 142.56 84.5955 142.167 84.3155 141.68C84.0421 141.187 83.9055 140.647 83.9055 140.06C83.9055 139.513 84.0021 139.033 84.1955 138.62C84.3888 138.207 84.6755 137.857 85.0555 137.57C85.4355 137.277 85.9021 137.04 86.4555 136.86C86.9355 136.72 87.4788 136.597 88.0855 136.49C88.6921 136.383 89.3288 136.283 89.9955 136.19C90.6688 136.097 91.3355 136.003 91.9955 135.91L91.2355 136.33C91.2488 135.483 91.0688 134.857 90.6955 134.45C90.3288 134.037 89.6955 133.83 88.7955 133.83C88.2288 133.83 87.7088 133.963 87.2355 134.23C86.7621 134.49 86.4321 134.923 86.2455 135.53L84.2955 134.93C84.5621 134.003 85.0688 133.267 85.8155 132.72C86.5688 132.173 87.5688 131.9 88.8155 131.9C89.7821 131.9 90.6221 132.067 91.3355 132.4C92.0555 132.727 92.5821 133.247 92.9155 133.96C93.0888 134.313 93.1955 134.687 93.2355 135.08C93.2755 135.473 93.2955 135.897 93.2955 136.35V143H91.4455V140.53L91.8055 140.85C91.3588 141.677 90.7888 142.293 90.0955 142.7C89.4088 143.1 88.5621 143.3 87.5555 143.3ZM87.9255 141.59C88.5188 141.59 89.0288 141.487 89.4555 141.28C89.8821 141.067 90.2255 140.797 90.4855 140.47C90.7455 140.143 90.9155 139.803 90.9955 139.45C91.1088 139.13 91.1721 138.77 91.1855 138.37C91.2055 137.97 91.2155 137.65 91.2155 137.41L91.8955 137.66C91.2355 137.76 90.6355 137.85 90.0955 137.93C89.5555 138.01 89.0655 138.09 88.6255 138.17C88.1921 138.243 87.8055 138.333 87.4655 138.44C87.1788 138.54 86.9221 138.66 86.6955 138.8C86.4755 138.94 86.2988 139.11 86.1655 139.31C86.0388 139.51 85.9755 139.753 85.9755 140.04C85.9755 140.32 86.0455 140.58 86.1855 140.82C86.3255 141.053 86.5388 141.24 86.8255 141.38C87.1121 141.52 87.4788 141.59 87.9255 141.59ZM99.8861 143L99.8961 132.2H102.016V137.4L106.256 132.2H108.916L104.436 137.6L109.376 143H106.536L102.016 137.8V143H99.8861ZM114.879 143.3C113.799 143.3 112.862 143.057 112.069 142.57C111.276 142.083 110.662 141.413 110.229 140.56C109.802 139.7 109.589 138.71 109.589 137.59C109.589 136.463 109.809 135.473 110.249 134.62C110.689 133.76 111.306 133.093 112.099 132.62C112.892 132.14 113.819 131.9 114.879 131.9C115.959 131.9 116.896 132.143 117.689 132.63C118.482 133.117 119.096 133.787 119.529 134.64C119.962 135.493 120.179 136.477 120.179 137.59C120.179 138.717 119.959 139.71 119.519 140.57C119.086 141.423 118.472 142.093 117.679 142.58C116.886 143.06 115.952 143.3 114.879 143.3ZM114.879 141.33C115.912 141.33 116.682 140.983 117.189 140.29C117.702 139.59 117.959 138.69 117.959 137.59C117.959 136.463 117.699 135.563 117.179 134.89C116.666 134.21 115.899 133.87 114.879 133.87C114.179 133.87 113.602 134.03 113.149 134.35C112.696 134.663 112.359 135.1 112.139 135.66C111.919 136.213 111.809 136.857 111.809 137.59C111.809 138.723 112.069 139.63 112.589 140.31C113.109 140.99 113.872 141.33 114.879 141.33ZM122.367 143V132.2H124.457V136.61H129.727V132.2H131.817V143H129.727V138.58H124.457V143H122.367ZM139.703 147.5V143.19C138.649 143.357 137.693 143.243 136.833 142.85C135.973 142.457 135.289 141.817 134.783 140.93C134.276 140.043 134.023 138.937 134.023 137.61C134.023 136.283 134.276 135.173 134.783 134.28C135.289 133.387 135.973 132.743 136.833 132.35C137.693 131.957 138.649 131.843 139.703 132.01V128.74H141.583V132.01C142.636 131.843 143.593 131.957 144.453 132.35C145.313 132.743 145.996 133.387 146.503 134.28C147.009 135.173 147.263 136.283 147.263 137.61C147.263 138.937 147.009 140.043 146.503 140.93C145.996 141.817 145.313 142.457 144.453 142.85C143.593 143.243 142.636 143.357 141.583 143.19V147.5H139.703ZM139.703 141.3V133.91C139.163 133.817 138.673 133.833 138.233 133.96C137.799 134.087 137.429 134.31 137.123 134.63C136.816 134.943 136.579 135.353 136.413 135.86C136.246 136.36 136.163 136.943 136.163 137.61C136.163 138.277 136.246 138.86 136.413 139.36C136.586 139.86 136.829 140.27 137.143 140.59C137.463 140.903 137.839 141.123 138.273 141.25C138.706 141.37 139.183 141.387 139.703 141.3ZM141.583 141.3C142.103 141.387 142.579 141.37 143.013 141.25C143.446 141.13 143.819 140.913 144.133 140.6C144.453 140.287 144.696 139.88 144.863 139.38C145.036 138.873 145.123 138.283 145.123 137.61C145.123 136.93 145.039 136.34 144.873 135.84C144.706 135.333 144.469 134.923 144.163 134.61C143.856 134.29 143.483 134.07 143.043 133.95C142.609 133.83 142.123 133.817 141.583 133.91V141.3ZM158.566 132.2V143H156.556V135.49L151.156 143H149.456V132.2H151.466V139.56L156.876 132.2H158.566ZM160.561 145.4V141.32C161.154 141.32 161.578 141.123 161.831 140.73C162.091 140.33 162.298 139.653 162.451 138.7C162.544 138.12 162.621 137.503 162.681 136.85C162.748 136.197 162.804 135.49 162.851 134.73C162.898 133.963 162.944 133.12 162.991 132.2H170.731V141.32H171.791V145.4H169.811V143H162.551V145.4H160.561ZM163.551 141.32H168.631V133.88H164.851C164.824 134.32 164.794 134.773 164.761 135.24C164.734 135.707 164.701 136.17 164.661 136.63C164.628 137.09 164.588 137.53 164.541 137.95C164.494 138.37 164.441 138.75 164.381 139.09C164.301 139.617 164.204 140.057 164.091 140.41C163.984 140.763 163.804 141.067 163.551 141.32ZM178.573 143.3C177.499 143.3 176.556 143.067 175.743 142.6C174.936 142.127 174.306 141.47 173.853 140.63C173.406 139.783 173.183 138.803 173.183 137.69C173.183 136.51 173.403 135.487 173.843 134.62C174.289 133.753 174.909 133.083 175.703 132.61C176.496 132.137 177.419 131.9 178.473 131.9C179.573 131.9 180.509 132.157 181.283 132.67C182.056 133.177 182.633 133.9 183.013 134.84C183.399 135.78 183.553 136.897 183.473 138.19H181.383V137.43C181.369 136.177 181.129 135.25 180.663 134.65C180.203 134.05 179.499 133.75 178.553 133.75C177.506 133.75 176.719 134.08 176.193 134.74C175.666 135.4 175.403 136.353 175.403 137.6C175.403 138.787 175.666 139.707 176.193 140.36C176.719 141.007 177.479 141.33 178.473 141.33C179.126 141.33 179.689 141.183 180.163 140.89C180.643 140.59 181.016 140.163 181.283 139.61L183.333 140.26C182.913 141.227 182.276 141.977 181.423 142.51C180.569 143.037 179.619 143.3 178.573 143.3ZM174.723 138.19V136.56H182.433V138.19H174.723ZM185.706 143V132.2H187.796V136.61H193.066V132.2H195.156V143H193.066V138.58H187.796V143H185.706ZM207.083 145.13V143H197.953V132.2H200.043V141.03H204.973V132.2H207.063V141.12H209.173V145.13H207.083ZM219.875 132.2V143H217.865V135.49L212.465 143H210.765V132.2H212.775V139.56L218.185 132.2H219.875ZM225.72 143.3C224.92 143.3 224.25 143.153 223.71 142.86C223.17 142.56 222.76 142.167 222.48 141.68C222.206 141.187 222.07 140.647 222.07 140.06C222.07 139.513 222.166 139.033 222.36 138.62C222.553 138.207 222.84 137.857 223.22 137.57C223.6 137.277 224.066 137.04 224.62 136.86C225.1 136.72 225.643 136.597 226.25 136.49C226.856 136.383 227.493 136.283 228.16 136.19C228.833 136.097 229.5 136.003 230.16 135.91L229.4 136.33C229.413 135.483 229.233 134.857 228.86 134.45C228.493 134.037 227.86 133.83 226.96 133.83C226.393 133.83 225.873 133.963 225.4 134.23C224.926 134.49 224.596 134.923 224.41 135.53L222.46 134.93C222.726 134.003 223.233 133.267 223.98 132.72C224.733 132.173 225.733 131.9 226.98 131.9C227.946 131.9 228.786 132.067 229.5 132.4C230.22 132.727 230.746 133.247 231.08 133.96C231.253 134.313 231.36 134.687 231.4 135.08C231.44 135.473 231.46 135.897 231.46 136.35V143H229.61V140.53L229.97 140.85C229.523 141.677 228.953 142.293 228.26 142.7C227.573 143.1 226.726 143.3 225.72 143.3ZM226.09 141.59C226.683 141.59 227.193 141.487 227.62 141.28C228.046 141.067 228.39 140.797 228.65 140.47C228.91 140.143 229.08 139.803 229.16 139.45C229.273 139.13 229.336 138.77 229.35 138.37C229.37 137.97 229.38 137.65 229.38 137.41L230.06 137.66C229.4 137.76 228.8 137.85 228.26 137.93C227.72 138.01 227.23 138.09 226.79 138.17C226.356 138.243 225.97 138.333 225.63 138.44C225.343 138.54 225.086 138.66 224.86 138.8C224.64 138.94 224.463 139.11 224.33 139.31C224.203 139.51 224.14 139.753 224.14 140.04C224.14 140.32 224.21 140.58 224.35 140.82C224.49 141.053 224.703 141.24 224.99 141.38C225.276 141.52 225.643 141.59 226.09 141.59ZM233.056 143V141.23C233.456 141.303 233.76 141.293 233.966 141.2C234.18 141.1 234.336 140.92 234.436 140.66C234.543 140.4 234.633 140.063 234.706 139.65C234.82 139.043 234.916 138.353 234.996 137.58C235.083 136.8 235.16 135.957 235.226 135.05C235.293 134.143 235.353 133.193 235.406 132.2H243.166V143H241.066V134.17H237.286C237.246 134.697 237.2 135.257 237.146 135.85C237.1 136.437 237.046 137.02 236.986 137.6C236.926 138.18 236.863 138.723 236.796 139.23C236.73 139.737 236.66 140.17 236.586 140.53C236.453 141.25 236.256 141.823 235.996 142.25C235.743 142.67 235.383 142.94 234.916 143.06C234.45 143.187 233.83 143.167 233.056 143ZM245.96 143V132.2H248.06V135.95H250.19C250.497 135.95 250.824 135.957 251.17 135.97C251.524 135.983 251.827 136.017 252.08 136.07C252.66 136.19 253.16 136.39 253.58 136.67C254.007 136.95 254.337 137.323 254.57 137.79C254.804 138.25 254.92 138.817 254.92 139.49C254.92 140.43 254.674 141.18 254.18 141.74C253.694 142.293 253.034 142.667 252.2 142.86C251.934 142.92 251.617 142.96 251.25 142.98C250.89 142.993 250.56 143 250.26 143H245.96ZM248.06 141.32H250.38C250.547 141.32 250.737 141.313 250.95 141.3C251.164 141.287 251.36 141.257 251.54 141.21C251.86 141.117 252.147 140.927 252.4 140.64C252.654 140.353 252.78 139.97 252.78 139.49C252.78 138.997 252.654 138.603 252.4 138.31C252.154 138.017 251.84 137.827 251.46 137.74C251.28 137.693 251.097 137.663 250.91 137.65C250.724 137.637 250.547 137.63 250.38 137.63H248.06V141.32ZM256.82 143V132.2H258.91V136.61H264.18V132.2H266.27V143H264.18V138.58H258.91V143H256.82ZM273.766 143.3C272.686 143.3 271.749 143.057 270.956 142.57C270.162 142.083 269.549 141.413 269.116 140.56C268.689 139.7 268.476 138.71 268.476 137.59C268.476 136.463 268.696 135.473 269.136 134.62C269.576 133.76 270.192 133.093 270.986 132.62C271.779 132.14 272.706 131.9 273.766 131.9C274.846 131.9 275.782 132.143 276.576 132.63C277.369 133.117 277.982 133.787 278.416 134.64C278.849 135.493 279.066 136.477 279.066 137.59C279.066 138.717 278.846 139.71 278.406 140.57C277.972 141.423 277.359 142.093 276.566 142.58C275.772 143.06 274.839 143.3 273.766 143.3ZM273.766 141.33C274.799 141.33 275.569 140.983 276.076 140.29C276.589 139.59 276.846 138.69 276.846 137.59C276.846 136.463 276.586 135.563 276.066 134.89C275.552 134.21 274.786 133.87 273.766 133.87C273.066 133.87 272.489 134.03 272.036 134.35C271.582 134.663 271.246 135.1 271.026 135.66C270.806 136.213 270.696 136.857 270.696 137.59C270.696 138.723 270.956 139.63 271.476 140.31C271.996 140.99 272.759 141.33 273.766 141.33ZM285.883 143.3C284.777 143.3 283.837 143.053 283.063 142.56C282.29 142.067 281.697 141.39 281.283 140.53C280.877 139.67 280.67 138.693 280.663 137.6C280.67 136.487 280.883 135.503 281.303 134.65C281.723 133.79 282.323 133.117 283.103 132.63C283.883 132.143 284.82 131.9 285.913 131.9C287.093 131.9 288.1 132.193 288.933 132.78C289.773 133.367 290.327 134.17 290.593 135.19L288.513 135.79C288.307 135.183 287.967 134.713 287.493 134.38C287.027 134.04 286.49 133.87 285.883 133.87C285.197 133.87 284.633 134.033 284.193 134.36C283.753 134.68 283.427 135.12 283.213 135.68C283 136.24 282.89 136.88 282.883 137.6C282.89 138.713 283.143 139.613 283.643 140.3C284.15 140.987 284.897 141.33 285.883 141.33C286.557 141.33 287.1 141.177 287.513 140.87C287.933 140.557 288.253 140.11 288.473 139.53L290.593 140.03C290.24 141.083 289.657 141.893 288.843 142.46C288.03 143.02 287.043 143.3 285.883 143.3ZM295.303 143V134.08H291.613V132.2H301.083V134.08H297.393V143H295.303ZM312.082 132.2V143H310.072V135.49L304.672 143H302.972V132.2H304.982V139.56L310.392 132.2H312.082Z" fill="#061538"/>
<path d="M0 144.25H139.203V144.75H0V144.25ZM142.086 144.25H160.062V144.75H142.086V144.25ZM172.289 144.25H206.586V144.75H172.289V144.25ZM209.672 144.25H313.482V144.75H209.672V144.25Z" fill="#061538"/>
</svg>
