<svg width="64" height="64" viewBox="0 0 64 64" fill="none" xmlns="http://www.w3.org/2000/svg">
  <path fill-rule="evenodd" clip-rule="evenodd"
    d="M52.7377 11.8132C53.3966 11.5359 54.1179 11.4402 54.8264 11.5362C55.5349 11.6322 56.2047 11.9164 56.7662 12.3591C57.3276 12.8018 57.7601 13.3869 58.0186 14.0535C58.2772 14.72 58.3524 15.4437 58.2363 16.1492L52.1883 52.8346C51.6017 56.3732 47.719 58.4026 44.4737 56.6399C41.759 55.1652 37.727 52.8932 34.1003 50.5226C32.287 49.3359 26.7323 45.5359 27.415 42.8319C28.0017 40.5199 37.335 31.8319 42.6683 26.6666C44.7617 24.6372 43.807 23.4666 41.335 25.3332C35.1963 29.9679 25.3403 37.0159 22.0817 38.9999C19.207 40.7492 17.7083 41.0479 15.9163 40.7492C12.647 40.2052 9.61499 39.3626 7.14033 38.3359C3.79633 36.9492 3.95899 32.3519 7.13766 31.0132L52.7377 11.8132Z"
    fill="url(#paint0_linear_1127_3049)" />
  <defs>
    <linearGradient id="paint0_linear_1127_3049" x1="7.00283" y1="47.4752" x2="57.5381" y2="42.0691"
      gradientUnits="userSpaceOnUse">
      <stop offset="0.125" stop-color="#28AE60" />
      <stop offset="0.515" stop-color="#28AEA1" />
      <stop offset="1" stop-color="#41B9FF" />
    </linearGradient>
  </defs>
</svg>