<svg width="204" height="96" viewBox="0 0 204 96" fill="none" xmlns="http://www.w3.org/2000/svg">
<mask id="mask0_544_3440" style="mask-type:luminance" maskUnits="userSpaceOnUse" x="16" y="8" width="170" height="80">
<path d="M185.861 8H16V88H185.861V8Z" fill="white"/>
</mask>
<g mask="url(#mask0_544_3440)">
<path fill-rule="evenodd" clip-rule="evenodd" d="M140.14 48.0943C140.14 41.03 135.416 36.0242 128.514 36.0242C121.565 36.0242 116.841 40.9832 116.841 48.0943C116.841 55.0183 121.565 60.071 128.514 60.071C135.369 60.071 140.14 55.0183 140.14 48.0943ZM128.514 67.6967C117.535 67.6967 108.734 59.3692 108.734 48.0943C108.734 36.8663 117.582 28.3984 128.514 28.3984C139.399 28.3984 148.247 36.8663 148.247 48.0943C148.247 59.3692 139.399 67.6967 128.514 67.6967ZM152.138 29.9423C152.138 29.3341 152.462 28.9598 153.11 28.9598H159.225C159.827 28.9598 160.198 29.2873 160.198 29.9423V44.7727L173.862 29.5212C174.233 29.1002 174.604 28.9598 175.159 28.9598H183.961C184.563 28.9598 184.609 29.568 184.238 29.9891L167.099 47.4862L185.165 66.1996C185.535 66.6207 185.489 67.2289 184.887 67.2289H176.178C175.437 67.2289 175.252 67.0417 174.835 66.7142L160.198 50.5271V66.2464C160.198 66.8546 159.873 67.2289 159.225 67.2289H153.11C152.508 67.2289 152.138 66.9014 152.138 66.2464V29.9423Z" fill="#061538"/>
<path d="M16.6016 46.4568C16.6016 28.4919 16.6016 19.4626 22.1138 13.8954C27.6724 8.32813 36.5661 8.32812 54.3536 8.32812H57.5035C75.2909 8.32812 84.231 8.32813 89.7433 13.8954C95.2555 19.4626 95.2555 28.4919 95.2555 46.4568V49.6381C95.2555 67.603 95.2555 76.6322 89.7433 82.1995C84.231 87.7667 75.2909 87.7667 57.5035 87.7667H54.3536C36.5661 87.7667 27.6261 87.7667 22.1138 82.1995C16.6016 76.6322 16.6016 67.6498 16.6016 49.6381V46.4568Z" fill="#061538"/>
<path d="M55.9277 47.8592C59.7724 47.8592 63.2465 46.2686 65.7479 43.7423C68.2492 41.216 69.8242 37.7072 69.8242 33.8241C69.8242 29.9411 68.2492 26.4323 65.7479 23.906C63.2465 21.3797 59.7724 19.7891 55.9277 19.7891C52.083 19.7891 48.6089 21.3797 46.1075 23.906C43.6062 26.4323 42.0312 29.9411 42.0312 33.8241C42.0312 37.7072 43.6062 41.216 46.1075 43.7423C48.6089 46.2686 52.1293 47.8592 55.9277 47.8592ZM51.4808 29.2861C52.6389 28.1165 54.2138 27.4148 55.9277 27.4148C57.6879 27.4148 59.2629 28.1165 60.3746 29.2861C61.5326 30.4557 62.2274 32.0464 62.2274 33.7774C62.2274 35.5551 61.5326 37.1458 60.3746 38.2686C59.2165 39.4382 57.6416 40.1399 55.9277 40.1399C54.1675 40.1399 52.5926 39.4382 51.4808 38.2686C50.3228 37.099 49.628 35.5084 49.628 33.7774C49.628 32.0464 50.3691 30.4557 51.4808 29.2861Z" fill="white"/>
<path d="M74.6437 53.5247L70.5674 47.9107C70.3358 47.5832 69.8726 47.5364 69.5946 47.8171C65.7499 51.1388 61.0252 53.2908 55.9298 53.2908C50.8344 53.2908 46.1096 51.1388 42.2649 47.8171C41.987 47.5832 41.5238 47.63 41.2922 47.9107L37.2159 53.5247C37.0306 53.8054 37.0769 54.1797 37.3085 54.4136C40.7363 57.2206 44.72 59.1388 48.8889 60.1212L40.2731 75.4662C40.0415 75.8873 40.3658 76.4487 40.829 76.4487H49.2595C49.5374 76.4487 49.769 76.3084 49.8617 76.0277L55.8835 62.4604L61.9053 76.0277C61.9979 76.2616 62.2295 76.4487 62.5074 76.4487H70.938C71.4475 76.4487 71.7254 75.9341 71.4938 75.4662L62.878 60.1212C67.047 59.1388 71.0306 57.2674 74.4584 54.4136C74.829 54.1797 74.8753 53.8054 74.6437 53.5247Z" fill="white"/>
</g>
</svg>
