<svg width="96" height="96" viewBox="0 0 96 96" fill="none" xmlns="http://www.w3.org/2000/svg">
<path d="M86.016 73.5218H76.888C73.436 73.5218 72.396 70.7258 66.208 64.5338C60.8 59.3218 58.516 58.6738 57.148 58.6738C55.256 58.6738 54.74 59.1938 54.74 61.7978V70.0058C54.74 72.2258 54.02 73.5258 48.22 73.5258C42.5932 73.1478 37.1366 71.4384 32.2999 68.5385C27.4631 65.6385 23.3845 61.6309 20.4 56.8458C13.3161 48.0243 8.38563 37.6732 6 26.6138C6 25.2458 6.52 24.0058 9.128 24.0058H18.248C20.592 24.0058 21.436 25.0498 22.356 27.4618C26.784 40.4938 34.34 51.8298 37.408 51.8298C38.584 51.8298 39.096 51.3098 39.096 48.3778V34.9538C38.708 28.8298 35.456 28.3138 35.456 26.0978C35.4971 25.5132 35.7646 24.9676 36.2015 24.577C36.6384 24.1864 37.2104 23.9815 37.796 24.0058H52.132C54.092 24.0058 54.74 24.9818 54.74 27.3258V45.4458C54.74 47.4018 55.58 48.0498 56.172 48.0498C57.348 48.0498 58.252 47.4018 60.408 45.2498C65.0275 39.6125 68.803 33.3335 71.616 26.6098C71.9026 25.8017 72.4462 25.1098 73.1637 24.6402C73.8811 24.1706 74.7327 23.9491 75.588 24.0098H84.712C87.448 24.0098 88.028 25.3778 87.448 27.3298C84.1286 34.763 80.0225 41.8193 75.2 48.3778C74.216 49.8778 73.824 50.6578 75.2 52.4178C76.104 53.7858 79.304 56.4578 81.452 58.9978C84.58 62.1178 87.176 65.7258 89.14 69.6778C89.924 72.2218 88.62 73.5218 86.016 73.5218Z" fill="#061538"/>
</svg>
