<svg width="96" height="96" viewBox="0 0 96 96" fill="none" xmlns="http://www.w3.org/2000/svg">
<path fill-rule="evenodd" clip-rule="evenodd" d="M79.1066 17.7199C80.0951 17.3038 81.177 17.1603 82.2398 17.3043C83.3025 17.4483 84.3072 17.8745 85.1494 18.5386C85.9915 19.2027 86.6403 20.0803 87.0281 21.0802C87.4159 22.0801 87.5287 23.1656 87.3546 24.2239L78.2826 79.2519C77.4026 84.5599 71.5786 87.6039 66.7106 84.9599C62.6386 82.7479 56.5906 79.3399 51.1506 75.7839C48.4306 74.0039 40.0986 68.3039 41.1226 64.2479C42.0026 60.7799 56.0026 47.7479 64.0026 39.9999C67.1426 36.9559 65.7106 35.1999 62.0026 37.9999C52.7946 44.9519 38.0106 55.5239 33.1226 58.4999C28.8106 61.1239 26.5626 61.5719 23.8746 61.1239C18.9706 60.3079 14.4226 59.0439 10.7106 57.5039C5.69461 55.4239 5.93861 48.5279 10.7066 46.5199L79.1066 17.7199Z" fill="#061538"/>
</svg>
