<svg width="64" height="64" viewBox="0 0 64 64" fill="none" xmlns="http://www.w3.org/2000/svg">
  <path
    d="M37.1428 37.1425C32.9523 41.4663 32.6475 46.8568 32.2856 58.6663C43.2952 58.6663 50.8952 58.6283 54.819 54.8187C58.6285 50.8949 58.6666 42.933 58.6666 32.2854C46.8571 32.6663 41.4666 32.9521 37.1428 37.1425ZM5.33325 32.2854C5.33325 42.933 5.37135 50.8949 9.18087 54.8187C13.1047 58.6283 20.7047 58.6663 31.7142 58.6663C31.3333 46.8568 31.0475 41.4663 26.8571 37.1425C22.5333 32.9521 17.1428 32.6473 5.33325 32.2854ZM31.7142 5.33301C20.7237 5.33301 13.1047 5.3711 9.18087 9.18063C5.37135 13.1044 5.33325 21.0663 5.33325 31.714C17.1428 31.333 22.5333 31.0473 26.8571 26.8568C31.0475 22.533 31.3523 17.1425 31.7142 5.33301ZM37.1428 26.8568C32.9523 22.533 32.6475 17.1425 32.2856 5.33301C43.2952 5.33301 50.8952 5.3711 54.819 9.18063C58.6285 13.1044 58.6666 21.0663 58.6666 31.714C46.8571 31.333 41.4666 31.0473 37.1428 26.8568Z"
    fill="url(#paint0_linear_1127_3051)" />
  <path
    d="M58.6666 32.2854V31.714C46.8571 31.333 41.4666 31.0473 37.1428 26.8568C32.9523 22.533 32.6475 17.1425 32.2856 5.33301H31.7142C31.3333 17.1425 31.0475 22.533 26.8571 26.8568C22.5333 31.0473 17.1428 31.3521 5.33325 31.714V32.2854C17.1428 32.6663 22.5333 32.9521 26.8571 37.1425C31.0475 41.4663 31.3523 46.8568 31.7142 58.6663H32.2856C32.6666 46.8568 32.9523 41.4663 37.1428 37.1425C41.4666 32.9521 46.8571 32.6473 58.6666 32.2854Z"
    fill="white" />
  <defs>
    <linearGradient id="paint0_linear_1127_3051" x1="7.6321" y1="47.2378" x2="58.0732" y2="42.6281"
      gradientUnits="userSpaceOnUse">
      <stop offset="0.125" stop-color="#28AE60" />
      <stop offset="0.515" stop-color="#28AEA1" />
      <stop offset="1" stop-color="#41B9FF" />
    </linearGradient>
  </defs>
</svg>