<svg width="136" height="64" viewBox="0 0 136 64" fill="none" xmlns="http://www.w3.org/2000/svg">
  <mask id="mask0_1127_3052" style="mask-type:luminance" maskUnits="userSpaceOnUse" x="10" y="5"
    width="114" height="54">
    <path d="M123.907 5.33301H10.6667V58.6663H123.907V5.33301Z" fill="white" />
  </mask>
  <g mask="url(#mask0_1127_3052)">
    <path fill-rule="evenodd" clip-rule="evenodd"
      d="M93.4271 32.0622C93.4271 27.3527 90.2772 24.0155 85.6759 24.0155C81.0438 24.0155 77.8939 27.3215 77.8939 32.0622C77.8939 36.6782 81.0438 40.0467 85.6759 40.0467C90.2463 40.0467 93.4271 36.6782 93.4271 32.0622ZM85.6759 45.1305C78.3571 45.1305 72.4897 39.5788 72.4897 32.0622C72.4897 24.5769 78.388 18.9316 85.6759 18.9316C92.933 18.9316 98.8312 24.5769 98.8312 32.0622C98.8312 39.5788 92.933 45.1305 85.6759 45.1305ZM101.425 19.9609C101.425 19.5554 101.641 19.3059 102.074 19.3059H106.15C106.552 19.3059 106.799 19.5242 106.799 19.9609V29.8478L115.908 19.6802C116.155 19.3995 116.403 19.3059 116.773 19.3059H122.641C123.042 19.3059 123.073 19.7114 122.826 19.9921L111.4 31.6568L123.443 44.1324C123.69 44.4131 123.66 44.8186 123.258 44.8186H117.452C116.958 44.8186 116.835 44.6938 116.557 44.4755L106.799 33.6841V44.1636C106.799 44.5691 106.582 44.8186 106.15 44.8186H102.074C101.672 44.8186 101.425 44.6003 101.425 44.1636V19.9609Z"
      fill="url(#paint0_linear_1127_3052)" />
    <path
      d="M11.0679 30.9709C11.0679 18.9942 11.0679 12.9748 14.7427 9.26326C18.4484 5.55176 24.3776 5.55176 36.2359 5.55176H38.3358C50.1941 5.55176 56.1542 5.55176 59.829 9.26326C63.5038 12.9748 63.5038 18.9942 63.5038 30.9709V33.0917C63.5038 45.0683 63.5038 51.0878 59.829 54.7993C56.1542 58.5108 50.1941 58.5108 38.3358 58.5108H36.2359C24.3776 58.5108 18.4176 58.5108 14.7427 54.7993C11.0679 51.0878 11.0679 45.0995 11.0679 33.0917V30.9709Z"
      fill="url(#paint1_linear_1127_3052)" />
    <path
      d="M37.2858 31.9058C39.8489 31.9058 42.165 30.8454 43.8326 29.1612C45.5001 27.477 46.5501 25.1378 46.5501 22.5491C46.5501 19.9604 45.5001 17.6212 43.8326 15.937C42.165 14.2528 39.8489 13.1924 37.2858 13.1924C34.7227 13.1924 32.4066 14.2528 30.739 15.937C29.0714 17.6212 28.0215 19.9604 28.0215 22.5491C28.0215 25.1378 29.0714 27.477 30.739 29.1612C32.4066 30.8454 34.7535 31.9058 37.2858 31.9058ZM34.3212 19.5238C35.0932 18.744 36.1432 18.2762 37.2858 18.2762C38.4593 18.2762 39.5092 18.744 40.2504 19.5238C41.0224 20.3035 41.4856 21.3639 41.4856 22.5179C41.4856 23.7031 41.0224 24.7635 40.2504 25.5121C39.4783 26.2918 38.4284 26.7596 37.2858 26.7596C36.1123 26.7596 35.0624 26.2918 34.3212 25.5121C33.5492 24.7323 33.086 23.6719 33.086 22.5179C33.086 21.3639 33.5801 20.3035 34.3212 19.5238Z"
      fill="white" />
    <path
      d="M49.7627 35.6828L47.0452 31.9401C46.8908 31.7218 46.582 31.6906 46.3967 31.8778C43.8335 34.0922 40.6837 35.5269 37.2868 35.5269C33.8899 35.5269 30.74 34.0922 28.1769 31.8778C27.9916 31.7218 27.6828 31.753 27.5284 31.9401L24.8108 35.6828C24.6873 35.87 24.7182 36.1195 24.8726 36.2754C27.1578 38.1468 29.8136 39.4255 32.5929 40.0805L26.849 50.3105C26.6946 50.5912 26.9107 50.9655 27.2196 50.9655H32.8399C33.0252 50.9655 33.1796 50.8719 33.2414 50.6848L37.2559 41.6399L41.2704 50.6848C41.3322 50.8407 41.4866 50.9655 41.6719 50.9655H47.2922C47.6319 50.9655 47.8172 50.6224 47.6628 50.3105L41.9189 40.0805C44.6982 39.4255 47.354 38.178 49.6392 36.2754C49.8862 36.1195 49.9171 35.87 49.7627 35.6828Z"
      fill="white" />
  </g>
  <defs>
    <linearGradient id="paint0_linear_1127_3052" x1="74.6928" y1="39.5164" x2="121.934" y2="31.0939"
      gradientUnits="userSpaceOnUse">
      <stop offset="0.125" stop-color="#28AE60" />
      <stop offset="0.515" stop-color="#28AEA1" />
      <stop offset="1" stop-color="#41B9FF" />
    </linearGradient>
    <linearGradient id="paint1_linear_1127_3052" x1="13.328" y1="47.1625" x2="62.9285" y2="42.6744"
      gradientUnits="userSpaceOnUse">
      <stop offset="0.125" stop-color="#28AE60" />
      <stop offset="0.515" stop-color="#28AEA1" />
      <stop offset="1" stop-color="#41B9FF" />
    </linearGradient>
  </defs>
</svg>