<svg width="64" height="64" viewBox="0 0 64 64" fill="none" xmlns="http://www.w3.org/2000/svg">
  <path
    d="M26.6666 39.9997L40.5066 31.9997L26.6666 23.9997V39.9997ZM57.4933 19.1197C57.8399 20.373 58.0799 22.053 58.2399 24.1863C58.4266 26.3197 58.5066 28.1597 58.5066 29.7597L58.6666 31.9997C58.6666 37.8397 58.2399 42.133 57.4933 44.8797C56.8266 47.2797 55.2799 48.8263 52.8799 49.493C51.6266 49.8397 49.3333 50.0797 45.8133 50.2397C42.3466 50.4263 39.1733 50.5063 36.2399 50.5063L31.9999 50.6663C20.8266 50.6663 13.8666 50.2397 11.1199 49.493C8.71992 48.8263 7.17325 47.2797 6.50659 44.8797C6.15992 43.6263 5.91992 41.9463 5.75992 39.813C5.57325 37.6797 5.49325 35.8397 5.49325 34.2397L5.33325 31.9997C5.33325 26.1597 5.75992 21.8663 6.50659 19.1197C7.17325 16.7197 8.71992 15.173 11.1199 14.5063C12.3733 14.1597 14.6666 13.9197 18.1866 13.7597C21.6533 13.573 24.8266 13.493 27.7599 13.493L31.9999 13.333C43.1733 13.333 50.1333 13.7597 52.8799 14.5063C55.2799 15.173 56.8266 16.7197 57.4933 19.1197Z"
    fill="url(#paint0_linear_1127_3050)" />
  <defs>
    <linearGradient id="paint0_linear_1127_3050" x1="7.6321" y1="42.6663" x2="57.6421" y2="36.1374"
      gradientUnits="userSpaceOnUse">
      <stop offset="0.125" stop-color="#28AE60" />
      <stop offset="0.515" stop-color="#28AEA1" />
      <stop offset="1" stop-color="#41B9FF" />
    </linearGradient>
  </defs>
</svg>