<svg width="96" height="96" viewBox="0 0 96 96" fill="none" xmlns="http://www.w3.org/2000/svg">
<path d="M55.7143 55.7143C49.4286 62.2 48.9714 70.2857 48.4286 88C64.9429 88 76.3429 87.9429 82.2286 82.2286C87.9429 76.3429 88 64.4 88 48.4286C70.2857 49 62.2 49.4286 55.7143 55.7143ZM8 48.4286C8 64.4 8.05714 76.3429 13.7714 82.2286C19.6571 87.9429 31.0571 88 47.5714 88C47 70.2857 46.5714 62.2 40.2857 55.7143C33.8 49.4286 25.7143 48.9714 8 48.4286ZM47.5714 8C31.0857 8 19.6571 8.05714 13.7714 13.7714C8.05714 19.6571 8 31.6 8 47.5714C25.7143 47 33.8 46.5714 40.2857 40.2857C46.5714 33.8 47.0286 25.7143 47.5714 8ZM55.7143 40.2857C49.4286 33.8 48.9714 25.7143 48.4286 8C64.9429 8 76.3429 8.05714 82.2286 13.7714C87.9429 19.6571 88 31.6 88 47.5714C70.2857 47 62.2 46.5714 55.7143 40.2857Z" fill="#061538"/>
<path d="M88 48.4286V47.5714C70.2857 47 62.2 46.5714 55.7143 40.2857C49.4286 33.8 48.9714 25.7143 48.4286 8H47.5714C47 25.7143 46.5714 33.8 40.2857 40.2857C33.8 46.5714 25.7143 47.0286 8 47.5714V48.4286C25.7143 49 33.8 49.4286 40.2857 55.7143C46.5714 62.2 47.0286 70.2857 47.5714 88H48.4286C49 70.2857 49.4286 62.2 55.7143 55.7143C62.2 49.4286 70.2857 48.9714 88 48.4286Z" fill="white"/>
</svg>
