<svg width="611" height="70" viewBox="0 0 611 70" fill="none" xmlns="http://www.w3.org/2000/svg">
<ellipse cx="576.985" cy="34.94" rx="13.0053" ry="13.0698" transform="rotate(180 576.985 34.94)" fill="#59A9B4"/>
<path fill-rule="evenodd" clip-rule="evenodd" d="M543.701 41.9773C545.212 49.2002 549.016 55.7569 554.565 60.6453C560.602 65.9632 568.316 68.964 576.342 69.1167C584.369 69.2694 592.19 66.5641 598.423 61.4796C604.656 56.395 608.898 49.2588 610.4 41.3336C611.901 33.4083 610.565 25.2047 606.627 18.1742C602.69 11.1437 596.405 5.73933 588.884 2.91728C581.363 0.0952417 573.092 0.0373867 565.533 2.75396C557.974 5.47052 551.614 10.7864 547.58 17.7612L549.892 19.1121C553.609 12.6858 559.469 7.78789 566.433 5.28494C573.398 2.78199 581.019 2.8353 587.948 5.43543C594.878 8.03556 600.669 13.0149 604.296 19.4926C607.924 25.9703 609.156 33.5288 607.772 40.8308C606.389 48.1329 602.48 54.7079 596.737 59.3926C590.995 64.0774 583.788 66.5699 576.393 66.4292C568.998 66.2885 561.89 63.5237 556.328 58.624C550.766 53.7242 547.107 47.0052 546 39.6558L543.958 39.9666H1.02948C0.474182 39.9666 0.0241089 40.4167 0.0241089 40.9719C0.0241089 41.5272 0.474243 41.9773 1.02948 41.9773H543.701Z" fill="#59A9B4"/>
</svg>
